:SAMPLES-PER-SECOND 30
:FULLY-SPECIFIED
:DEGREES
212
root  -16.5928 34.6142 -13.549 -168.805 17.1903 -175.131
RightUpLeg  -6.94504 -1.37171 1.08427
RightLeg  -0.716793 9.79141 -0.748312
RightFoot  9.44422 -0.0976394 1.66406
RightToes  -33.0819 -0.165709 -0.272805
Spine  -5.52023 -1.47393 0.896686
Spine1  -11.0233 -2.78178 2.30714
HEad  -53.9246 -31.2824 -2.48755
LeftShoulder1  -1.94126e-019 -3.10601e-018 -2.51263e-017
LeftArm  -75.519 -24.9416 13.2092
LeftForeArm  86.9649 -80.0697 -71.2807
LeftHand  -0.945497 -2.51603 14.0658
RightShoulder  -4.96962e-017 0 -2.36833e-017
RightArm  -86.708 19.7723 -17.4559
RightForeArm  47.0975 63.2829 17.5278
RightHand  0.374142 -7.66756 -19.6803
LeftUpLeg  1.78011 13.9701 12.0697
LeftLeg  -0.157559 16.4556 -1.08906
LeftFoot  7.97951 -0.161663 2.47909
LeftToes  -28.1064 1.70063e-006 7.6642e-008
213
root  -16.5736 34.6422 -13.5893 -169.415 15.5146 -175.455
RightUpLeg  -6.16852 -1.21416 0.933201
RightLeg  -0.689464 7.86882 -0.599009
RightFoot  9.19507 -0.0660534 1.31415
RightToes  -31.4799 -0.154244 -0.262119
Spine  -5.36225 -1.30507 0.759932
Spine1  -10.6787 -2.44371 1.98313
HEad  -52.7336 -23.6418 -0.168742
LeftShoulder1  -1.94126e-019 -3.10601e-018 -2.51263e-017
LeftArm  -76.1263 -31.4013 14.6734
LeftForeArm  46.7039 -70.2481 -26.9113
LeftHand  -0.791665 -2.44921 11.9221
RightShoulder  -4.96962e-017 0 -2.36833e-017
RightArm  -93.9154 24.637 -24.7845
RightForeArm  40.0082 43.0022 7.6597
RightHand  0.286357 -7.49643 -16.7266
LeftUpLeg  1.77235 12.0675 11.9482
LeftLeg  -0.162101 16.6829 -1.10499
LeftFoot  8.35904 -0.179976 2.62404
LeftToes  -28.2546 1.70063e-006 7.6642e-008
214
root  -16.5612 34.6667 -13.5928 -170.075 13.8474 -175.847
RightUpLeg  -5.40826 -1.16059 0.735198
RightLeg  -0.667837 6.00069 -0.455407
RightFoot  9.0328 -0.039103 0.998178
RightToes  -30.3481 -0.146326 -0.254378
Spine  -5.13097 -1.04764 0.621381
Spine1  -10.1775 -1.91445 1.5905
HEad  -53.2467 -14.5144 3.25064
LeftShoulder1  -1.94126e-019 -3.10601e-018 -2.51263e-017
LeftArm  -76.318 -36.3087 15.3149
LeftForeArm  37.6671 -59.9353 -16.0958
LeftHand  -0.737242 -2.49165 11.0639
RightShoulder  -4.96962e-017 0 -2.36833e-017
RightArm  -101.269 27.072 -30.2978
RightForeArm  37.4611 27.1385 3.75291
RightHand  0.38667 -8.37633 -15.8146
LeftUpLeg  1.5847 10.2647 11.7628
LeftLeg  0.194126 16.7733 -1.00766
LeftFoot  8.55 -0.188991 2.68942
LeftToes  -27.7653 1.70063e-006 7.6642e-008
215
root  -16.5517 34.6904 -13.5796 -170.614 12.1442 -176.301
RightUpLeg  -5.0105 -1.5342 0.486237
RightLeg  -0.212205 4.5458 -0.309007
RightFoot  8.49639 -0.0176369 0.722031
RightToes  -28.8736 -0.136242 -0.244062
Spine  -4.95953 -0.85652 0.531466
Spine1  -9.80023 -1.5013 1.30785
HEad  -53.3844 -5.43372 6.1856
LeftShoulder1  -1.94126e-019 -3.10601e-018 -2.51263e-017
LeftArm  -74.7999 -38.5853 13.2566
LeftForeArm  35.1785 -55.564 -13.5018
LeftHand  -0.740106 -2.50373 11.0897
RightShoulder  -4.96962e-017 0 -2.36833e-017
RightArm  -105.596 27.9437 -30.2228
RightForeArm  36.2555 25.6936 3.51703
RightHand  0.547843 -9.56845 -15.8258
LeftUpLeg  0.811587 8.70955 11.495
LeftLeg  1.43243 16.6408 -0.644656
LeftFoot  8.41342 -0.180666 2.61746
LeftToes  -27.495 1.70063e-006 7.6642e-008
216
root  -16.5581 34.7038 -13.5454 -170.963 10.428 -176.834
RightUpLeg  -4.82446 -2.68757 0.123497
RightLeg  0.191722 3.86123 -0.235179
RightFoot  8.15969 -0.0082344 0.610916
RightToes  -29.0111 -0.132811 -0.240559
Spine  -4.83717 -0.816196 0.371877
Spine1  -9.54454 -1.39987 1.15717
HEad  -53.0296 3.38677 8.0829
LeftShoulder1  -1.94126e-019 -3.10601e-018 -2.51263e-017
LeftArm  -71.1581 -37.4786 8.57999
LeftForeArm  36.3171 -58.4417 -15.197
LeftHand  -0.725316 -2.02748 11.5364
RightShoulder  -4.96962e-017 0 -2.36833e-017
RightArm  -103.71 27.7376 -25.34
RightForeArm  34.029 35.2892 5.83408
RightHand  0.567693 -9.80268 -15.5342
LeftUpLeg  -0.226649 6.97595 11.0767
LeftLeg  2.77123 16.7001 -0.262063
LeftFoot  8.2511 -0.174893 2.58593
LeftToes  -27.2475 1.70063e-006 7.6642e-008
217
root  -16.5572 34.7213 -13.467 -171.226 8.48126 -177.398
RightUpLeg  -4.68903 -4.05573 -0.237844
RightLeg  0.487043 3.20239 -0.178491
RightFoot  7.79216 0.00105168 0.494321
RightToes  -28.5579 -0.131606 -0.239337
Spine  -4.72571 -0.82189 0.275116
Spine1  -9.31741 -1.37921 1.17051
HEad  -53.3729 10.5353 8.51676
LeftShoulder1  -1.94126e-019 -3.10601e-018 -2.51263e-017
LeftArm  -66.9828 -33.9265 2.56824
LeftForeArm  39.7272 -65.6151 -21.1837
LeftHand  -0.695971 -1.72955 11.5204
RightShoulder  -4.96962e-017 0 -2.36833e-017
RightArm  -96.6479 25.5895 -18.0881
RightForeArm  32.5206 51.636 11.4806
RightHand  0.641556 -10.1756 -16.0907
LeftUpLeg  -1.60205 4.98812 10.6749
LeftLeg  4.43448 16.6562 0.215146
LeftFoot  7.94688 -0.161688 2.489
LeftToes  -26.8836 1.70063e-006 7.6642e-008
218
root  -16.5717 34.7078 -13.3274 -171.355 6.1367 -177.733
RightUpLeg  -4.6976 -5.28357 -0.381201
RightLeg  0.840392 2.0619 -0.102111
RightFoot  7.35007 0.0134942 0.325618
RightToes  -28.2443 -0.132107 -0.239864
Spine  -4.49117 -0.882115 0.325215
Spine1  -8.85522 -1.47508 1.33249
HEad  -54.8671 16.4482 7.7307
LeftShoulder1  -1.94126e-019 -3.10601e-018 -2.51263e-017
LeftArm  -63.5184 -28.7965 -2.81048
LeftForeArm  50.1356 -73.9655 -35.6165
LeftHand  -0.712444 -1.85982 11.5855
RightShoulder  -4.96962e-017 0 -2.36833e-017
RightArm  -88.5298 21.0486 -10.9602
RightForeArm  39.2559 68.5609 24.8638
RightHand  0.751222 -10.6693 -16.9515
LeftUpLeg  -4.07435 3.01594 10.5654
LeftLeg  7.79283 16.1791 1.14625
LeftFoot  6.98535 -0.121043 2.14456
LeftToes  -27.3044 1.70063e-006 7.6642e-008
219
root  -16.6013 34.6499 -13.1886 -171.51 3.08084 -177.735
RightUpLeg  -4.48653 -7.80931 -0.214368
RightLeg  1.05388 1.58779 -0.0726143
RightFoot  6.87462 0.0188703 0.25099
RightToes  -28.5428 -0.133796 -0.241605
Spine  -4.07364 -0.994961 0.500172
Spine1  -8.02837 -1.6759 1.67813
HEad  -57.8197 21.165 6.42888
LeftShoulder1  -1.94126e-019 -3.10601e-018 -2.51263e-017
LeftArm  -60.6803 -23.6144 -6.18289
LeftForeArm  80.0133 -79.6491 -67.8485
LeftHand  -0.747473 -1.90605 12.0699
RightShoulder  -4.96962e-017 0 -2.36833e-017
RightArm  -81.9036 15.4408 -5.95775
RightForeArm  78.4928 79.738 69.5169
RightHand  0.776843 -11.0369 -16.4115
LeftUpLeg  -7.80882 1.67158 10.8984
LeftLeg  13.3608 14.3538 2.4193
LeftFoot  5.10766 -0.057056 1.44072
LeftToes  -27.2982 1.70063e-006 7.6642e-008
220
root  -16.6707 34.5777 -13.0828 -171.758 -0.411255 -177.541
RightUpLeg  -3.97446 -11.1119 0.0465652
RightLeg  1.0503 1.46423 -0.0670378
RightFoot  6.45755 0.0203093 0.225868
RightToes  -28.6819 -0.136155 -0.24403
Spine  -3.64205 -1.01156 0.749714
Spine1  -7.16499 -1.67332 2.14405
HEad  -60.6621 24.2053 5.35016
LeftShoulder1  -1.94126e-019 -3.10601e-018 -2.51263e-017
LeftArm  -58.2034 -19.8599 -7.90394
LeftForeArm  122.08 -79.8916 -109.195
LeftHand  -0.829114 -2.26095 12.766
RightShoulder  -4.96962e-017 0 -2.36833e-017
RightArm  -76.5662 10.6379 -2.98725
RightForeArm  143.061 76.7837 133.943
RightHand  0.59715 -10.1863 -15.0463
LeftUpLeg  -12.0248 2.47107 11.2254
LeftLeg  19.5122 11.8068 3.31761
LeftFoot  3.95059 -0.0281929 0.978982
LeftToes  -28.6996 1.70063e-006 7.6642e-008
221
root  -16.7881 34.5313 -13.0293 -172.141 -3.65192 -177.566
RightUpLeg  -3.15567 -14.0277 -0.0999398
RightLeg  0.834107 1.20246 -0.0596129
RightFoot  6.31464 0.020923 0.205928
RightToes  -29.2049 -0.138665 -0.246606
Spine  -3.32752 -0.735069 0.836759
Spine1  -6.53839 -1.0858 2.2785
HEad  -62.0408 25.3994 5.41369
LeftShoulder1  -1.94126e-019 -3.10601e-018 -2.51263e-017
LeftArm  -55.4962 -18.734 -7.49057
LeftForeArm  141.046 -78.1478 -127.113
LeftHand  -0.898213 -2.39827 13.572
RightShoulder  -4.96962e-017 0 -2.36833e-017
RightArm  -71.4343 8.14167 -2.11492
RightForeArm  170.923 69.899 153.77
RightHand  0.274393 -7.70613 -14.7943
LeftUpLeg  -15.3042 5.37261 10.7987
LeftLeg  23.9525 10.4485 3.82838
LeftFoot  3.93409 -0.020463 0.908824
LeftToes  -29.814 1.70063e-006 7.6642e-008
222
root  -16.9657 34.5172 -13.0229 -172.442 -6.35065 -177.726
RightUpLeg  -2.22541 -15.9748 -0.5316
RightLeg  0.353798 0.499601 -0.0289715
RightFoot  6.46804 0.0233574 0.153493
RightToes  -29.5462 -0.140808 -0.248799
Spine  -3.23403 -0.26257 0.797853
Spine1  -6.36977 -0.120482 2.21372
HEad  -60.8175 25.802 7.48568
LeftShoulder1  -1.94126e-019 -3.10601e-018 -2.51263e-017
LeftArm  -53.6992 -19.5482 -5.12506
LeftForeArm  147.129 -77.4972 -131.566
LeftHand  -0.998626 -3.70976 12.9683
RightShoulder  -4.96962e-017 0 -2.36833e-017
RightArm  -66.6367 9.31752 -3.28448
RightForeArm  -173.899 67.0025 158.878
RightHand  0.0685424 -5.92824 -17.6738
LeftUpLeg  -17.4258 8.90992 9.6833
LeftLeg  26.2316 11.5616 4.75346
LeftFoot  4.27121 -0.0283141 1.09919
LeftToes  -29.6258 1.70063e-006 7.6642e-008
223
root  -17.2269 34.5064 -13.0629 -172.661 -8.58159 -177.853
RightUpLeg  -1.45135 -17.3243 -1.09595
RightLeg  0.165588 -0.302658 0.018666
RightFoot  6.57643 0.0264999 0.0845912
RightToes  -29.9723 -0.14373 -0.251773
Spine  -3.28732 0.325233 0.733174
Spine1  -6.48537 1.0738 2.09177
HEad  -57.7724 25.3463 10.813
LeftShoulder1  -1.94126e-019 -3.10601e-018 -2.51263e-017
LeftArm  -53.1345 -22.0623 -1.07929
LeftForeArm  139.862 -79.2544 -120.741
LeftHand  -1.1249 -4.19487 13.8548
RightShoulder  -4.96962e-017 0 -2.36833e-017
RightArm  -64.2933 14.2561 -5.73588
RightForeArm  -174.594 71.1374 153.887
RightHand  0.0569159 -5.70354 -23.4985
LeftUpLeg  -18.8528 13.3627 8.06528
LeftLeg  27.3952 14.0387 6.07804
LeftFoot  3.73619 -0.0334098 1.18588
LeftToes  -28.1886 1.70063e-006 7.6642e-008
